<mxfile host="app.diagrams.net" modified="2024-01-16T08:09:21.820Z" agent="Mozilla/5.0 (Windows NT 10.0; Win64; x64) AppleWebKit/537.36 (KHTML, like Gecko) Chrome/120.0.0.0 Safari/537.36" version="22.1.18" etag="tBSSnZ59Q9gRvn8C30dz" type="github">
  <diagram name="Page-1" id="cEQRYgmiVeUCH-sJrGeN">
    <mxGraphModel>
      <root>
        <mxCell id="0" />
        <mxCell id="1" parent="0" />
      </root>
    </mxGraphModel>
  </diagram>
</mxfile>
